<svg width="512" height="360" viewBox="0 0 512 360" fill="none" xmlns="http://www.w3.org/2000/svg">
<g id="Page 1">
<g id="041   Weight Training">
<path id="Shape" d="M477.867 52C471.857 52.0354 465.966 53.6732 460.8 56.7445V34.9333C460.8 16.082 445.518 0.799988 426.667 0.799988C407.815 0.799988 392.533 16.082 392.533 34.9333V111.733H355.533L324.267 80.2112V44.9856C324.267 37.0393 321.1 29.4205 315.468 23.8152C309.835 18.2099 302.201 15.0803 294.255 15.1189C288.994 15.1509 283.839 16.5981 279.33 19.3088C275.134 9.12652 265.674 2.07982 254.717 0.973374C243.76 -0.133068 233.083 4.88032 226.935 14.0181C219.575 8.42357 210.03 6.5738 201.113 9.01385C192.196 11.4539 184.922 17.9057 181.436 26.4683C176.835 23.7464 171.592 22.3001 166.246 22.2784C149.839 22.2925 136.543 35.5924 136.533 52V111.733H119.808V34.9333C119.808 16.082 104.526 0.799988 85.6747 0.799988C66.8233 0.799988 51.5413 16.082 51.5413 34.9333V56.7445C46.3757 53.6732 40.4843 52.0354 34.4747 52C15.6233 52 0.341324 67.282 0.341324 86.1333V214.133C0.341324 232.985 15.6233 248.267 34.4747 248.267C40.4843 248.231 46.3757 246.593 51.5413 243.522V265.333C51.5413 284.185 66.8233 299.467 85.6747 299.467C104.526 299.467 119.808 284.185 119.808 265.333V188.533H145.067V193.909C144.51 209.52 148.399 224.967 156.279 238.453L166.187 255.588C168.801 259.414 170.348 263.868 170.667 268.491V345.291C170.676 352.969 176.898 359.191 184.576 359.2H293.205C300.93 359.191 307.191 352.93 307.2 345.205V267.637C307.201 266.129 307.623 264.651 308.42 263.371L352.273 188.533H392.533V265.333C392.533 284.185 407.815 299.467 426.667 299.467C445.518 299.467 460.8 284.185 460.8 265.333V243.522C465.966 246.593 471.857 248.231 477.867 248.267C496.718 248.267 512 232.985 512 214.133V86.1333C512 67.282 496.718 52 477.867 52ZM294.545 32.1856C301.569 32.2373 307.228 37.9612 307.2 44.9856L307.2 63.008L303.164 58.9376C298.28 54.0977 291.684 51.3807 284.809 51.3771H284.723C283.676 51.4101 282.633 51.5127 281.6 51.6843V44.9856C281.6 41.5655 282.968 38.2876 285.4 35.8829C287.832 33.4783 291.125 32.1468 294.545 32.1856V32.1856ZM238.933 30.6667C238.933 23.5974 244.664 17.8667 251.733 17.8667C258.803 17.8667 264.533 23.5974 264.533 30.6667V62.24C255.42 76.2481 255.42 94.3119 264.533 108.32V113.483C262.605 118.891 257.475 122.496 251.733 122.477C248.355 122.511 245.103 121.194 242.699 118.82C240.296 116.445 238.94 113.209 238.933 109.83V30.6667ZM196.267 37.6981C196.267 30.6289 201.997 24.8981 209.067 24.8981C216.136 24.8981 221.867 30.6289 221.867 37.6981V109.813C221.862 116.811 216.193 122.484 209.195 122.494H208.939C201.941 122.484 196.271 116.811 196.267 109.813V37.6981ZM153.6 52C153.6 44.9307 159.331 39.2 166.4 39.2C173.469 39.2 179.2 44.9307 179.2 52V124.03C179.2 131.099 173.469 136.83 166.4 136.83C159.331 136.83 153.6 131.099 153.6 124.03V52ZM34.4747 231.2C25.049 231.2 17.408 223.559 17.408 214.133V86.1333C17.408 76.7077 25.049 69.0667 34.4747 69.0667C43.9003 69.0667 51.5413 76.7077 51.5413 86.1333V214.133C51.5413 223.559 43.9003 231.2 34.4747 231.2ZM102.741 265.333C102.741 274.759 95.1003 282.4 85.6747 282.4C76.249 282.4 68.608 274.759 68.608 265.333V34.9333C68.608 25.5077 76.249 17.8667 85.6747 17.8667C95.1003 17.8667 102.741 25.5077 102.741 34.9333V265.333ZM119.808 128.8H137.02C139.365 143.217 151.794 153.823 166.4 153.871C178.491 153.86 189.383 146.559 193.988 135.379C198.505 138.086 203.665 139.53 208.93 139.561H209.186C217.175 139.561 224.826 136.333 230.4 130.609C230.494 130.711 230.562 130.831 230.665 130.933C236.267 136.487 243.845 139.59 251.733 139.561C262.898 139.535 273.169 133.455 278.562 123.68C279.415 124.533 280.363 125.489 281.182 126.325L291.319 136.565C276.012 143.951 262.836 155.11 253.03 168.992C252.433 169.845 251.964 170.699 251.401 171.552H119.808V128.8ZM293.777 254.564C291.378 258.502 290.117 263.027 290.133 267.637V342.133H187.733V268.491C187.497 260.802 185.134 253.329 180.907 246.901L170.923 229.681C164.668 218.829 161.62 206.425 162.133 193.909V188.533H242.347C241.22 191.179 240.085 193.833 239.13 196.614C237.61 201.077 239.996 205.928 244.459 207.447C248.922 208.967 253.772 206.581 255.292 202.118C257.401 195.873 260.162 189.867 263.526 184.198C264.551 182.356 265.691 180.58 266.94 178.882C277.133 164.36 291.759 153.533 308.625 148.026C311.596 147.281 313.939 145.002 314.766 142.053C315.593 139.104 314.777 135.939 312.627 133.758C312.627 133.758 306.219 127.255 293.367 114.327C289.758 110.633 285.594 106.477 280.892 101.758L280.218 101.075C279.964 100.696 279.679 100.339 279.364 100.009C273.001 91.1549 273.125 79.194 279.671 70.4747C280.978 69.0528 282.867 68.3128 284.791 68.4693C287.132 68.4652 289.38 69.3852 291.046 71.0293L353.28 133.69C357.611 137.995 358.387 144.725 355.149 149.903L293.777 254.564ZM362.283 171.467L369.801 158.667C375.297 149.538 375.579 138.19 370.543 128.8H392.533V171.467H362.283ZM443.733 265.333C443.733 274.759 436.092 282.4 426.667 282.4C417.241 282.4 409.6 274.759 409.6 265.333V34.9333C409.6 25.5077 417.241 17.8667 426.667 17.8667C436.092 17.8667 443.733 25.5077 443.733 34.9333V265.333ZM494.933 214.133C494.933 223.559 487.292 231.2 477.867 231.2C468.441 231.2 460.8 223.559 460.8 214.133V86.1333C460.8 76.7077 468.441 69.0667 477.867 69.0667C487.292 69.0667 494.933 76.7077 494.933 86.1333V214.133Z" fill="#E8ECF2"/>
</g>
</g>
</svg>
